<?xml version="1.0" encoding="UTF-8"?>
<svg width="1188px" height="144px" viewBox="0 0 1188 144" version="1.1" xmlns="http://www.w3.org/2000/svg" xmlns:xlink="http://www.w3.org/1999/xlink">
    <g stroke="none" stroke-width="1" fill="none" fill-rule="evenodd">
        <g transform="translate(-26.000000, -6355.000000)">
            <g transform="translate(0.000000, 6278.000000)">
                <g  transform="translate(25.858525, 76.500000)">
                    <g transform="translate(904.000000, 0.000000)"></g>
                    <path d="M1181.33332,0.721206091 C1184.725,0.721206091 1187.47322,3.46942132 1187.47322,6.86109713 L1187.47322,6.86109713 L1187.47322,138.097584 C1187.47322,138.302247 1187.46257,138.506092 1187.44211,138.709936 C1187.43392,138.79262 1187.41837,138.873666 1187.4069,138.955532 C1187.39053,139.07178 1187.37661,139.188029 1187.35369,139.303459 C1187.33486,139.400878 1187.30703,139.495842 1187.28329,139.592443 C1187.25873,139.690681 1187.23744,139.78892 1187.20797,139.88552 C1187.17932,139.980484 1187.1433,140.072992 1187.10973,140.166318 C1187.07535,140.2621 1187.04424,140.357883 1187.00495,140.452028 C1186.96811,140.539624 1186.92554,140.623945 1186.88542,140.709085 C1186.8404,140.804867 1186.79783,140.902286 1186.74707,140.996431 C1186.70368,141.077478 1186.65374,141.154431 1186.60708,141.233022 C1186.55141,141.326348 1186.4982,141.420493 1186.43762,141.511364 C1186.38113,141.596503 1186.31728,141.675913 1186.2567,141.757778 C1186.19776,141.837187 1186.14291,141.917415 1186.07987,141.994368 C1185.97181,142.125353 1185.8572,142.249788 1185.73931,142.370948 C1185.71721,142.394689 1185.69756,142.420068 1185.67464,142.44299 C1185.65253,142.465093 1185.62879,142.483104 1185.60669,142.504389 C1185.48389,142.623912 1185.35782,142.740161 1185.2252,142.849041 C1185.15316,142.907984 1185.07784,142.959559 1185.00416,143.014409 C1184.91656,143.079901 1184.83224,143.147031 1184.74137,143.207611 C1184.65623,143.264917 1184.56782,143.314036 1184.48022,143.366429 C1184.39508,143.417186 1184.3124,143.470398 1184.2248,143.517061 C1184.13721,143.564543 1184.04634,143.603839 1183.9571,143.646408 C1183.86542,143.689797 1183.77454,143.735642 1183.6804,143.774937 C1183.5928,143.811776 1183.50357,143.840429 1183.41516,143.872356 C1183.31528,143.908377 1183.21541,143.946854 1183.11307,143.977963 C1183.02548,144.004978 1182.93543,144.023807 1182.84619,144.046729 C1182.74141,144.073745 1182.63744,144.102398 1182.53101,144.123683 C1182.42622,144.144149 1182.32144,144.156429 1182.21501,144.171164 C1182.1225,144.184263 1182.03163,144.202273 1181.93749,144.211278 C1181.7361,144.230926 1181.53389,144.241569 1181.33169,144.241569 L1181.33169,144.241569 L987.925119,144.241569 C984.533443,144.241569 981.785228,141.493353 981.785228,138.101677 L981.785228,138.101677 L981.785228,102.710527 L950.062458,102.710527 C946.670782,102.710527 943.922567,99.9623116 943.922567,96.5706358 C943.922567,93.17896 946.670782,90.4307448 950.062458,90.4307448 L950.062458,90.4307448 L981.785228,90.4307448 L981.785228,82.9286166 C981.785228,79.5369408 984.533443,76.7887255 987.925119,76.7887255 C991.316795,76.7887255 994.06501,79.5369408 994.06501,82.9286166 L994.06501,82.9286166 L994.06501,123.278343 L1047.83981,69.5035402 C1048.09523,69.2489393 1048.36948,69.0270846 1048.65437,68.8265148 L1048.65437,68.8265148 L994.065829,20.4957485 L994.065829,44.7237586 C994.065829,48.1154344 991.317613,50.8636496 987.925938,50.8636496 C984.534262,50.8636496 981.786047,48.1154344 981.786047,44.7237586 L981.786047,44.7237586 L981.786047,6.85945983 C981.786047,6.82589509 981.79014,6.79314901 981.790959,6.75958427 C981.792596,6.64415432 981.799964,6.52954302 981.80815,6.41493172 C981.814699,6.32487998 981.819611,6.23482825 981.830254,6.14641382 C981.843352,6.03998904 981.861363,5.93356426 981.879373,5.82713948 C981.895746,5.73381314 981.909663,5.63966814 981.930129,5.54716045 C981.952233,5.44810354 981.980067,5.35068394 982.006264,5.25244568 C982.032461,5.15666338 982.05702,5.06088108 982.087311,4.96673608 C982.117601,4.87340974 982.153621,4.7817207 982.188823,4.68921301 C982.224026,4.59506801 982.259228,4.49928571 982.299341,4.40677802 C982.337818,4.31918224 982.382025,4.23322377 982.424595,4.14726529 C982.471258,4.0531203 982.516284,3.9589753 982.567859,3.86728626 C982.612067,3.787877 982.662004,3.7109237 982.710305,3.63315175 C982.769248,3.5381881 982.828191,3.44404311 982.892046,3.35235407 C982.941165,3.28194998 982.995196,3.2131832 983.04759,3.14441642 C983.119631,3.05027143 983.191672,2.95694508 983.268626,2.867712 C983.289911,2.84315244 983.307102,2.81613692 983.329206,2.79157735 C983.366045,2.74982609 983.406978,2.7138054 983.445454,2.67287279 C983.522408,2.59100758 983.60018,2.50996102 983.681226,2.43218906 C983.752449,2.36342228 983.825309,2.29874876 983.898988,2.23407524 C983.973485,2.16940173 984.048801,2.10636551 984.125754,2.0449666 C984.210076,1.97783712 984.296034,1.91398226 984.382811,1.85258335 C984.45649,1.80100826 984.530987,1.75025183 984.607122,1.7011327 C984.69963,1.64218975 984.792956,1.5848841 984.88792,1.53085306 C984.96651,1.48582719 985.045919,1.44325728 985.126966,1.40150602 C985.22193,1.35320554 985.317712,1.30654237 985.414313,1.26315381 C985.50109,1.2238585 985.588686,1.18783781 985.677919,1.15263577 C985.772064,1.11497777 985.867846,1.08059438 985.963628,1.04784829 C986.056955,1.01673951 986.1511,0.987268037 986.246882,0.960252516 C986.343483,0.932418343 986.440903,0.907858779 986.538322,0.884936519 C986.634105,0.862832911 986.730706,0.842366608 986.828125,0.825174913 C986.932094,0.806345914 987.036063,0.790791523 987.14085,0.777693089 C987.232539,0.765413307 987.324228,0.754770829 987.416736,0.74740296 C987.532985,0.737579134 987.649233,0.732667221 987.7663,0.729392613 C987.820332,0.727755309 987.872725,0.721206091 987.926756,0.721206091 L987.926756,0.721206091 Z M1057.59487,76.7436997 C1057.31735,77.2627251 1056.96205,77.7506418 1056.52407,78.1886207 L1056.52407,78.1886207 L1002.74927,131.963424 L1166.50835,131.963424 L1112.73355,78.1886207 C1112.45766,77.9127349 1112.2178,77.6155642 1112.00495,77.3044764 L1112.00495,77.3044764 L1088.60214,97.1600654 C1087.45439,98.1326241 1086.04222,98.6180848 1084.62922,98.6180848 C1083.17366,98.6180848 1081.71973,98.102334 1080.55888,97.0749255 L1080.55888,97.0749255 Z M955.520411,116.355821 C958.912087,116.355821 961.660302,119.104036 961.660302,122.495712 C961.660302,125.887388 958.912087,128.635603 955.520411,128.635603 L955.520411,128.635603 L910.494544,128.635603 C907.102868,128.635603 904.354653,125.887388 904.354653,122.495712 C904.354653,119.104036 907.102868,116.355821 910.494544,116.355821 L910.494544,116.355821 Z M1175.19261,13.0018068 L1004.12297,13.0018068 L1084.71436,84.35389 L1153.79305,25.7465833 C1156.38081,23.5517769 1160.25467,23.8710513 1162.44702,26.4555361 C1164.64101,29.0416582 1164.32337,32.9155201 1161.73807,35.1095078 L1161.73807,35.1095078 L1121.31057,69.4085765 C1121.34577,69.4413226 1121.38261,69.4699754 1121.41699,69.5043588 L1121.41699,69.5043588 L1175.19261,123.279162 L1175.19261,13.0018068 Z M1014.19075,58.3674151 C1017.58243,58.3674151 1020.33065,61.1156303 1020.33065,64.5073062 C1020.33065,67.898982 1017.58243,70.6471972 1014.19075,70.6471972 L1014.19075,70.6471972 L910.494544,70.6471972 C907.102868,70.6471972 904.354653,67.898982 904.354653,64.5073062 C904.354653,61.1156303 907.102868,58.3674151 910.494544,58.3674151 L910.494544,58.3674151 Z M967.800193,24.5317036 C971.191869,24.5317036 973.940085,27.2799188 973.940085,30.6715946 C973.940085,34.0632704 971.191869,36.8114856 967.800193,36.8114856 L967.800193,36.8114856 L921.239353,36.8114856 C917.847677,36.8114856 915.099462,34.0632704 915.099462,30.6715946 C915.099462,27.2799188 917.847677,24.5317036 921.239353,24.5317036 L921.239353,24.5317036 Z" id="Combined-Shape" fill="#D7D9DD" fill-rule="nonzero"></path>
                    <path d="M6.80325807,70.6471972 L862.642075,70.6471972 C866.033751,70.6471972 868.781966,67.898982 868.781966,64.5073062 C868.781966,61.1156303 866.033751,58.3674151 862.642075,58.3674151 L6.80325807,58.3674151 C3.41158226,58.3674151 0.663367026,61.1156303 0.663367026,64.5073062 C0.663367026,67.898982 3.41158226,70.6471972 6.80325807,70.6471972 Z" id="Path" fill="#D7D9DD" opacity="0.149999991"></path>
                    <path d="M20.4121793,102.915277 L892.613959,102.915277 C896.005634,102.915277 898.75385,100.167061 898.75385,96.7753857 C898.75385,93.3837098 896.005634,90.6354946 892.613959,90.6354946 L20.4121793,90.6354946 C17.0205035,90.6354946 14.2722883,93.3837098 14.2722883,96.7753857 C14.2722883,100.167061 17.0205035,102.915277 20.4121793,102.915277 Z" id="Path" fill="#D7D9DD" opacity="0.149999991"></path>
                    <path d="M46.6406017,36.8114856 L873.193647,36.8114856 C876.585323,36.8114856 879.333538,34.0632704 879.333538,30.6715946 C879.333538,27.2799188 876.585323,24.5317036 873.193647,24.5317036 L46.6406017,24.5317036 C43.2489259,24.5317036 40.5007107,27.2799188 40.5007107,30.6715946 C40.5007107,34.0632704 43.2489259,36.8114856 46.6406017,36.8114856 Z" id="Path" fill="#D7D9DD" opacity="0.149999991"></path>
                    <path d="M856.642075,116.355821 L8.01934829,116.355821 C4.62767248,116.355821 1.87945725,119.104036 1.87945725,122.495712 C1.87945725,125.887388 4.62767248,128.635603 8.01934829,128.635603 L856.642075,128.635603 C860.033751,128.635603 862.781966,125.887388 862.781966,122.495712 C862.781966,119.104036 860.033751,116.355821 856.642075,116.355821 Z" id="Path" fill="#D7D9DD" opacity="0.149999991"></path>
                </g>
            </g>
        </g>
    </g>
</svg>