<svg width="38" height="38" viewBox="0 0 38 38" fill="none" xmlns="http://www.w3.org/2000/svg">
<circle cx="19" cy="19" r="19" fill="#001623"/>
<path fill-rule="evenodd" clip-rule="evenodd" d="M24.075 21.5219L27.9854 25.4322C28.5728 26.0197 28.5728 26.972 27.9854 27.5595C27.3979 28.1468 26.4456 28.1468 25.8581 27.5595L21.9476 23.649C21.9359 23.6372 21.9262 23.6244 21.9164 23.6114C21.909 23.6015 21.9015 23.5916 21.8931 23.5822C20.7259 24.3516 19.3288 24.8007 17.8262 24.8007C13.7392 24.8007 10.426 21.4874 10.426 17.4004C10.426 13.3133 13.7392 10 17.8263 10C21.9134 10 25.2267 13.3133 25.2267 17.4004C25.2267 18.9029 24.7776 20.3001 24.0082 21.4672C24.0175 21.4756 24.0274 21.4831 24.0373 21.4905C24.0503 21.5003 24.0632 21.5101 24.075 21.5219ZM12.9914 17.4004C12.9914 20.0706 15.156 22.2352 17.8264 22.2352C20.4965 22.2352 22.6612 20.0706 22.6612 17.4004C22.6612 14.7301 20.4965 12.5654 17.8264 12.5654C15.1561 12.5654 12.9914 14.73 12.9914 17.4004Z" fill="#FDB913"/>
</svg>
